<?xml version="1.0" encoding="utf-8"?>
<!-- Generator: Adobe Illustrator 22.0.0, SVG Export Plug-In . SVG Version: 6.00 Build 0)  -->
<svg version="1.1" id="Layer_4" xmlns="http://www.w3.org/2000/svg" xmlns:xlink="http://www.w3.org/1999/xlink" x="0px" y="0px"
	 viewBox="0 0 134.1 32" style="enable-background:new 0 0 134.1 32;" xml:space="preserve">
<style type="text/css">
	.st0{enable-background:new    ;}
	.st1{fill:#673AB7;}
	.st2{fill:#FFFFFF;stroke:#673AB7;stroke-width:0.8897;stroke-miterlimit:10;}
</style>
<g>
	<g class="st0">
		<path class="st1" d="M58.5,10.4c0,1.4-0.4,2.5-1.2,3.4c-1,1-2.2,1.5-3.8,1.5c-1.4,0-2.8-0.6-3.8-1.5c-1-1-1.5-2.3-1.5-3.8
			c0-1.5,0.6-2.8,1.5-3.8c1-1,2.3-1.5,3.8-1.5c0.8,0,1.4,0.1,2.1,0.4c0.7,0.2,1.2,0.7,1.7,1.1l-1,0.9c-0.3-0.3-0.7-0.7-1.2-0.9
			c-0.4-0.2-1-0.3-1.5-0.3c-1.1,0-2,0.3-2.8,1.1C50,7.9,49.7,8.9,49.7,10s0.3,2.1,1.1,2.9c0.8,0.8,1.7,1.1,2.8,1.1
			c1,0,1.9-0.3,2.5-0.9c0.7-0.6,1.1-1.3,1.2-2.3h-3.6V9.5h5C58.5,10,58.5,10.2,58.5,10.4z"/>
		<path class="st1" d="M60.1,15.2V5h3.1c1.5,0,2.8,0.4,3.8,1.4c1,0.9,1.4,2.2,1.4,3.6c0,1.5-0.4,2.8-1.4,3.6c-1,0.9-2.2,1.4-3.8,1.4
			H60.1z M61.4,6.2v7.6h1.8c1.2,0,2.1-0.3,2.8-1c0.7-0.7,1-1.7,1-2.9s-0.3-2.1-1-2.8s-1.7-1-2.8-1C63.2,6.2,61.4,6.2,61.4,6.2z"/>
		<path class="st1" d="M79.7,10.4c0,1.4-0.4,2.5-1.2,3.4c-1,1-2.2,1.5-3.8,1.5c-1.4,0-2.8-0.6-3.8-1.5s-1.5-2.3-1.5-3.8
			c0-1.5,0.6-2.8,1.5-3.8s2.3-1.5,3.8-1.5c0.8,0,1.4,0.1,2.1,0.4c0.7,0.2,1.2,0.7,1.7,1.1l-0.9,0.9c-0.3-0.3-0.7-0.7-1.2-0.9
			C75.8,6.1,75.2,6,74.7,6c-1.1,0-2,0.3-2.8,1.1s-1.1,1.8-1.1,2.9s0.3,2.1,1.1,2.9c0.8,0.8,1.7,1.1,2.8,1.1c1,0,1.9-0.3,2.5-0.9
			c0.7-0.6,1.1-1.3,1.2-2.3h-3.6V9.5h5C79.6,10,79.7,10.2,79.7,10.4z"/>
		<path class="st1" d="M84.4,15.2V5h3.1c1.5,0,2.8,0.4,3.8,1.4s1.4,2.2,1.4,3.6c0,1.5-0.4,2.8-1.4,3.6c-1,0.9-2.2,1.4-3.8,1.4H84.4z
			 M85.7,6.2v7.6h1.8c1.2,0,2.1-0.3,2.8-1s1-1.7,1-2.9s-0.3-2.1-1-2.8s-1.7-1-2.8-1C87.5,6.2,85.7,6.2,85.7,6.2z"/>
		<path class="st1" d="M96.9,15.4c-1,0-1.9-0.3-2.5-1.1s-1-1.5-1-2.7s0.3-2,1-2.7c0.7-0.7,1.4-1.1,2.4-1.1c1,0,1.9,0.3,2.4,1
			c0.7,0.7,0.9,1.5,0.9,2.8v0.1h-5.4c0,0.7,0.2,1.2,0.7,1.7s1,0.7,1.5,0.7c0.9,0,1.4-0.4,2-1.2l1.2,0.6c-0.3,0.6-0.8,1-1.3,1.3
			C98.2,15.1,97.7,15.4,96.9,15.4z M94.8,10.9h4c0-0.4-0.2-0.9-0.6-1.2s-0.9-0.4-1.4-0.4c-0.4,0-0.9,0.1-1.2,0.4
			C95.2,9.9,94.9,10.3,94.8,10.9z"/>
		<path class="st1" d="M104.6,15.2h-1.3l-2.8-7h1.4l2.1,5.4l0,0l2-5.4h1.4L104.6,15.2z"/>
		<path class="st1" d="M109.8,10.8v4.3h-1.3V5h6v1.2h-4.6v3.3h4.2v1.2H109.8z"/>
		<path class="st1" d="M118.4,15.4c-1,0-1.9-0.3-2.5-1.1s-1-1.5-1-2.7s0.3-2,1-2.7c0.7-0.7,1.4-1.1,2.4-1.1c1,0,1.9,0.3,2.4,1
			c0.7,0.7,0.9,1.5,0.9,2.8v0.1h-5.4c0,0.7,0.2,1.2,0.7,1.7s1,0.7,1.5,0.7c0.9,0,1.4-0.4,2-1.2l1.2,0.6c-0.3,0.6-0.8,1-1.3,1.3
			C119.8,15.1,119.1,15.4,118.4,15.4z M116.3,10.9h4c0-0.4-0.2-0.9-0.6-1.2s-0.9-0.4-1.4-0.4c-0.4,0-0.9,0.1-1.2,0.4
			C116.7,9.9,116.4,10.3,116.3,10.9z"/>
		<path class="st1" d="M128.3,13.2c0,0.6-0.2,1.1-0.8,1.5c-0.6,0.4-1.2,0.7-2,0.7c-0.7,0-1.3-0.2-1.9-0.6c-0.6-0.3-0.9-0.9-1.1-1.4
			l1.2-0.6c0.2,0.4,0.4,0.8,0.8,1c0.3,0.2,0.7,0.3,1.1,0.3s0.8-0.1,1-0.2c0.3-0.2,0.4-0.4,0.4-0.7c0-0.4-0.3-0.8-1-1l-1.2-0.3
			c-1.3-0.3-2-1-2-2c0-0.7,0.2-1.1,0.8-1.5c0.6-0.4,1.2-0.6,2-0.6c0.7,0,1.2,0.1,1.7,0.4c0.4,0.3,0.9,0.7,1,1.2L127,10
			c-0.1-0.3-0.3-0.6-0.7-0.7c-0.3-0.1-0.7-0.2-1-0.2s-0.7,0.1-0.9,0.2c-0.2,0.1-0.4,0.3-0.4,0.7c0,0.4,0.3,0.7,1.1,0.9l1.1,0.2
			C127.6,11.4,128.3,12.2,128.3,13.2z"/>
		<path class="st1" d="M132.1,15.3c-0.6,0-1-0.2-1.4-0.6c-0.3-0.3-0.6-0.9-0.6-1.4V9.4h-1.2V8.2h1.2V6.1h1.3v2.1h1.7v1.2h-1.7v3.4
			c0,0.4,0.1,0.8,0.2,1c0.2,0.1,0.3,0.2,0.7,0.2c0.1,0,0.2,0,0.3,0s0.2,0,0.3-0.1l0.4,1.2C133,15.2,132.6,15.3,132.1,15.3z"/>
	</g>
	<g class="st0">
		<path class="st1" d="M55,25c0,0.9-0.3,1.6-1,2.1c-0.7,0.5-1.4,0.8-2.4,0.8c-0.9,0-1.5-0.2-2.2-0.8c-0.7-0.4-1.1-1.2-1.3-2l1.2-0.5
			c0.1,0.3,0.2,0.5,0.3,0.8c0.1,0.2,0.3,0.4,0.5,0.7c0.2,0.2,0.4,0.3,0.7,0.4c0.2,0.1,0.5,0.1,0.8,0.1c0.5,0,1.1-0.1,1.4-0.4
			c0.3-0.3,0.5-0.7,0.5-1.2c0-0.4-0.1-0.8-0.4-1.1c-0.3-0.3-0.9-0.5-1.6-0.9s-1.3-0.4-1.5-0.5c-1.1-0.5-1.6-1.3-1.6-2.4
			c0-0.8,0.3-1.4,0.9-1.9c0.5-0.5,1.3-0.8,2.2-0.8c0.8,0,1.4,0.2,2,0.5c0.5,0.3,1,0.9,1.1,1.4l-1.2,0.5c-0.1-0.3-0.3-0.7-0.7-1
			c-0.3-0.2-0.8-0.3-1.2-0.3c-0.5,0-1,0.1-1.3,0.4c-0.3,0.2-0.5,0.5-0.5,1c0,0.3,0.1,0.7,0.4,0.9c0.3,0.2,1,0.5,2,0.9
			s1.8,0.8,2.2,1.3C54.8,23.7,55,24.3,55,25z"/>
		<path class="st1" d="M59.5,28c-1,0-1.9-0.3-2.5-1c-0.7-0.7-1-1.5-1-2.6c0-1.1,0.3-2,1-2.6c0.7-0.7,1.4-1.1,2.4-1.1
			c1,0,1.9,0.3,2.4,1c0.7,0.7,0.9,1.5,0.9,2.7v0.1h-5.4c0,0.7,0.2,1.2,0.7,1.6c0.4,0.4,1,0.7,1.5,0.7c0.9,0,1.4-0.4,2-1.2l1.2,0.5
			c-0.3,0.5-0.8,1-1.3,1.3C60.9,27.8,60.2,28,59.5,28z M57.5,23.5h4c0-0.4-0.2-0.9-0.5-1.2c-0.3-0.3-0.9-0.4-1.4-0.4
			c-0.4,0-0.9,0.1-1.2,0.4C57.8,22.5,57.6,23,57.5,23.5z"/>
		<path class="st1" d="M66.7,20.7c1,0,1.8,0.2,2.3,0.8s0.9,1.2,0.9,2.1v4.3h-1.2v-1h-0.2c-0.5,0.8-1.2,1.2-2.2,1.2
			c-0.8,0-1.4-0.2-1.9-0.7c-0.5-0.4-0.8-1-0.8-1.6c0-0.8,0.2-1.3,0.8-1.7c0.5-0.4,1.2-0.7,2.2-0.7c0.8,0,1.4,0.1,1.9,0.4v-0.3
			c0-0.4-0.2-0.9-0.5-1.1c-0.3-0.3-0.8-0.4-1.2-0.4c-0.8,0-1.3,0.3-1.8,0.9L63.8,22C64.5,21.1,65.5,20.7,66.7,20.7z M64.9,25.6
			c0,0.3,0.1,0.7,0.4,0.9c0.3,0.2,0.7,0.3,1,0.3c0.5,0,1-0.2,1.4-0.7s0.7-0.9,0.7-1.4c-0.4-0.3-1-0.4-1.6-0.4c-0.5,0-1,0.1-1.3,0.3
			C65.1,24.9,64.9,25.3,64.9,25.6z"/>
		<path class="st1" d="M76.5,25.8c0,0.5-0.2,1.1-0.8,1.5c-0.5,0.4-1.2,0.7-2,0.7c-0.7,0-1.3-0.2-1.9-0.5c-0.5-0.3-0.9-0.9-1.1-1.4
			l1.2-0.5c0.2,0.4,0.4,0.8,0.8,1c0.3,0.2,0.7,0.3,1.1,0.3c0.4,0,0.8-0.1,1-0.2c0.3-0.2,0.4-0.4,0.4-0.7c0-0.4-0.3-0.8-1-1l-1.2-0.3
			c-1.3-0.3-2-1-2-2c0-0.7,0.2-1.1,0.8-1.5c0.5-0.3,1.2-0.5,2-0.5c0.7,0,1.2,0.1,1.6,0.4c0.4,0.3,0.9,0.7,1,1.2l-1.2,0.4
			c-0.1-0.3-0.3-0.5-0.7-0.7c-0.3-0.1-0.7-0.2-1-0.2S73,21.9,72.7,22c-0.2,0.1-0.4,0.3-0.4,0.7c0,0.4,0.3,0.7,1.1,0.9l1.1,0.2
			C75.8,24.1,76.5,24.8,76.5,25.8z"/>
		<path class="st1" d="M77.2,24.3c0-1.1,0.3-2,1-2.6c0.7-0.7,1.5-1.1,2.5-1.1s1.9,0.3,2.5,1.1c0.7,0.7,1,1.5,1,2.6s-0.3,2-1,2.6
			c-0.5,0.8-1.4,1.1-2.4,1.1s-1.9-0.3-2.5-1C77.6,26.2,77.2,25.4,77.2,24.3z M78.6,24.3c0,0.8,0.2,1.3,0.7,1.7
			c0.4,0.4,1,0.7,1.6,0.7c0.7,0,1.2-0.2,1.6-0.7c0.4-0.4,0.7-1.1,0.7-1.7c0-0.8-0.2-1.3-0.7-1.7c-0.4-0.4-1-0.7-1.6-0.7
			c-0.7,0-1.2,0.2-1.6,0.7C78.8,23,78.6,23.6,78.6,24.3z"/>
		<path class="st1" d="M85.4,20.9h1.2v1h0.1c0.2-0.3,0.5-0.7,0.9-0.9c0.4-0.2,0.9-0.3,1.3-0.3c0.9,0,1.5,0.2,2,0.8
			c0.4,0.4,0.7,1.2,0.7,2.1v4.4h-1.3v-4.3c0-1.1-0.5-1.6-1.8-1.6c-0.5,0-1,0.2-1.3,0.7c-0.3,0.4-0.5,0.9-0.5,1.5V28h-1.3v-7.1H85.4z
			"/>
		<path class="st1" d="M102.1,26.5v1.2h-6.2v-1.3l2.5-2.5c0.9-0.9,1.4-1.5,1.8-2c0.3-0.4,0.4-0.9,0.4-1.3c0-0.4-0.1-0.8-0.4-1.1
			S99.4,19,98.9,19c-0.4,0-0.9,0.1-1.1,0.4s-0.5,0.5-0.7,1L95.9,20c0.2-0.5,0.5-1.1,1.1-1.5c0.5-0.4,1.2-0.7,1.9-0.7
			c0.9,0,1.6,0.2,2.2,0.8c0.5,0.5,0.9,1.2,0.9,2c0,0.9-0.5,2-1.5,3l-2.9,2.8h4.5V26.5z"/>
		<path class="st1" d="M103.4,23c0-1.4,0.3-2.6,1.1-3.6c0.8-1,1.6-1.4,2.7-1.4c1.1,0,2.1,0.4,2.7,1.4c0.8,1,1.1,2.2,1.1,3.6
			c0,1.4-0.3,2.6-1.1,3.6c-0.8,1-1.6,1.4-2.7,1.4c-1.1,0-2.1-0.4-2.7-1.4C103.7,25.6,103.4,24.4,103.4,23z M109.8,23
			c0-1.1-0.2-2-0.7-2.7s-1.1-1.1-1.9-1.1c-0.8,0-1.4,0.3-1.9,1.1c-0.4,0.8-0.7,1.6-0.7,2.7s0.2,2,0.7,2.7c0.4,0.7,1.1,1.1,1.9,1.1
			c0.8,0,1.4-0.3,1.9-1.1C109.6,24.9,109.8,24.1,109.8,23z"/>
		<path class="st1" d="M115.8,18.1v9.6h-1.3v-8l-1.9,0.8l-0.4-1.1l2.9-1.3H115.8z"/>
		<path class="st1" d="M120.7,24.3c-0.8,0-1.4-0.3-2.1-0.9c-0.7-0.7-0.9-1.3-0.9-2.2c0-0.9,0.3-1.6,1-2.3c0.7-0.7,1.4-1,2.3-1
			s1.8,0.3,2.3,1c0.5,0.7,1,1.4,1,2.3c0,0.8-0.3,1.6-1,2.6l-2.9,4.2l-1.1-0.8l2.4-3.3l0,0C121.4,24.2,121.1,24.3,120.7,24.3z
			 M122.9,21.1c0-0.5-0.2-1-0.5-1.4c-0.4-0.3-0.9-0.5-1.4-0.5c-0.5,0-1,0.2-1.4,0.5c-0.4,0.4-0.5,0.9-0.5,1.4c0,0.5,0.2,1,0.5,1.4
			c0.4,0.4,0.9,0.5,1.4,0.5c0.5,0,1-0.2,1.4-0.5C122.7,22.1,122.9,21.6,122.9,21.1z"/>
	</g>
	<g>
		<g>
			<path class="st2" d="M19.4,12.2L6.3,19.7c-1.8,1-4,0.4-5.1-1.3l0,0c-1-1.8-0.4-4,1.3-5.1l13.1-7.5c1.8-1,4-0.4,5.1,1.3l0,0
				C21.9,8.9,21.2,11.2,19.4,12.2z"/>
			<path class="st2" d="M15.7,27.2L2.6,19.7c-1.8-1-2.4-3.3-1.3-5.1l0,0c1-1.8,3.3-2.4,5.1-1.3l13,7.5c1.8,1,2.4,3.3,1.3,5.1l0,0
				C19.8,27.6,17.5,28.2,15.7,27.2z"/>
		</g>
		<g>
			<path class="st2" d="M28.8,20.8l13.1-7.5c1.8-1,4-0.4,5.1,1.3l0,0c1,1.8,0.4,4-1.3,5.1l-13.1,7.5c-1.8,1-4,0.4-5.1-1.3l0,0
				C26.3,24.1,27,21.8,28.8,20.8z"/>
			<path class="st2" d="M32.4,5.8l13.1,7.5c1.8,1,2.4,3.3,1.3,5.1l0,0c-1,1.8-3.3,2.4-5.1,1.3l-13.1-7.5c-1.8-1-2.4-3.3-1.3-5.1l0,0
				C28.4,5.4,30.7,4.8,32.4,5.8z"/>
		</g>
	</g>
</g>
</svg>
