<?xml version="1.0" encoding="utf-8"?>
<!-- Generator: Adobe Illustrator 22.0.0, SVG Export Plug-In . SVG Version: 6.00 Build 0)  -->
<svg version="1.1" id="Layer_4" xmlns="http://www.w3.org/2000/svg" xmlns:xlink="http://www.w3.org/1999/xlink" x="0px" y="0px"
	 viewBox="0 0 536.9 128" style="enable-background:new 0 0 536.9 128;" xml:space="preserve">
<style type="text/css">
	.st0{fill:#C63A2A;}
	.st1{fill:#5F75B3;}
	.st2{fill:#E9B92B;}
	.st3{fill:#579956;}
	.st4{enable-background:new    ;}
	.st5{fill:#FFFFFF;}
</style>
<g>
	<g>
		<g>
			<path class="st0" d="M84.8,44.6L30.7,75.9c-7.3,4.2-16.8,1.7-21-5.6l0,0C5.5,63,8,53.5,15.3,49.3L69.4,18
				c7.3-4.2,16.8-1.7,21,5.6l0,0C94.7,30.9,92.1,40.4,84.8,44.6z"/>
			<path class="st1" d="M69.6,106.9l-54.2-31c-7.3-4.2-9.9-13.6-5.7-21l0,0c4.2-7.3,13.6-9.9,21-5.7l54.2,31
				c7.3,4.2,9.9,13.6,5.7,21l0,0C86.3,108.5,76.9,111.1,69.6,106.9z"/>
		</g>
		<g>
			<path class="st2" d="M123.3,80.2L177.4,49c7.3-4.2,16.8-1.7,21,5.6l0,0c4.2,7.3,1.7,16.8-5.6,21l-54.1,31.3
				c-7.3,4.2-16.8,1.7-21-5.6l0,0C113.4,93.9,115.9,84.5,123.3,80.2z"/>
			<path class="st3" d="M138.5,18l54.2,31c7.3,4.2,9.9,13.6,5.7,21l0,0c-4.2,7.3-13.6,9.9-21,5.7l-54.2-31c-7.3-4.2-9.9-13.6-5.7-21
				l0,0C121.7,16.3,131.2,13.8,138.5,18z"/>
		</g>
	</g>
	<g class="st4">
		<path class="st5" d="M241.4,39.7c0,5.5-1.6,9.8-4.9,13.1c-3.7,3.9-8.5,5.8-14.4,5.8c-5.7,0-10.5-2-14.5-5.9
			c-3.9-3.9-5.9-8.8-5.9-14.6c0-5.8,2-10.6,5.9-14.6c3.9-3.9,8.8-5.9,14.5-5.9c2.9,0,5.6,0.5,8.2,1.5c2.6,1,4.7,2.5,6.3,4.3
			l-3.6,3.6c-1.2-1.5-2.8-2.6-4.7-3.4c-1.9-0.8-4-1.2-6.2-1.2c-4.3,0-7.9,1.5-10.9,4.4c-2.9,3-4.4,6.7-4.4,11.2s1.5,8.2,4.4,11.2
			c3,3,6.6,4.4,10.9,4.4c3.9,0,7.2-1.1,9.8-3.3c2.6-2.2,4.1-5.2,4.5-9h-14.3v-4.7h19C241.3,37.8,241.4,38.8,241.4,39.7z"/>
		<path class="st5" d="M247.5,57.8V18.5h12c6,0,10.8,1.8,14.4,5.4c3.6,3.6,5.5,8.4,5.5,14.2c0,5.9-1.8,10.6-5.5,14.2
			c-3.6,3.6-8.5,5.4-14.4,5.4H247.5z M252.6,23.3v29.6h7c4.6,0,8.2-1.3,10.8-3.9c2.6-2.6,3.9-6.2,3.9-10.9c0-4.6-1.3-8.2-3.9-10.9
			c-2.6-2.6-6.2-3.9-10.8-3.9H252.6z"/>
		<path class="st5" d="M323.2,39.7c0,5.5-1.6,9.8-4.9,13.1c-3.7,3.9-8.5,5.8-14.4,5.8c-5.7,0-10.5-2-14.5-5.9
			c-3.9-3.9-5.9-8.8-5.9-14.6c0-5.8,2-10.6,5.9-14.6c3.9-3.9,8.8-5.9,14.5-5.9c2.9,0,5.6,0.5,8.2,1.5c2.6,1,4.7,2.5,6.3,4.3
			l-3.6,3.6c-1.2-1.5-2.8-2.6-4.7-3.4c-1.9-0.8-4-1.2-6.2-1.2c-4.3,0-7.9,1.5-10.9,4.4c-2.9,3-4.4,6.7-4.4,11.2s1.5,8.2,4.4,11.2
			c3,3,6.6,4.4,10.9,4.4c3.9,0,7.2-1.1,9.8-3.3c2.6-2.2,4.1-5.2,4.5-9h-14.3v-4.7h19C323.1,37.8,323.2,38.8,323.2,39.7z"/>
		<path class="st5" d="M341.4,57.8V18.5h12c6,0,10.8,1.8,14.4,5.4c3.6,3.6,5.5,8.4,5.5,14.2c0,5.9-1.8,10.6-5.5,14.2
			c-3.6,3.6-8.5,5.4-14.4,5.4H341.4z M346.4,23.3v29.6h7c4.6,0,8.2-1.3,10.8-3.9c2.6-2.6,3.9-6.2,3.9-10.9c0-4.6-1.3-8.2-3.9-10.9
			c-2.6-2.6-6.2-3.9-10.8-3.9H346.4z"/>
		<path class="st5" d="M389.6,58.6c-3.9,0-7.2-1.4-9.8-4.1c-2.6-2.7-3.8-6.1-3.8-10.2c0-4.1,1.2-7.5,3.7-10.2
			c2.5-2.7,5.7-4.1,9.5-4.1c4,0,7.2,1.3,9.5,3.9c2.4,2.6,3.5,6.2,3.5,10.8l-0.1,0.5h-21.1c0.1,2.6,1,4.8,2.6,6.4
			c1.7,1.6,3.7,2.4,6,2.4c3.2,0,5.7-1.6,7.6-4.8l4.5,2.2c-1.2,2.3-2.9,4-5,5.3C394.7,58,392.3,58.6,389.6,58.6z M381.6,41.1H397
			c-0.1-1.9-0.9-3.4-2.3-4.6c-1.4-1.2-3.2-1.8-5.5-1.8c-1.9,0-3.5,0.6-4.9,1.8C382.9,37.6,382,39.1,381.6,41.1z"/>
		<path class="st5" d="M419.4,57.8h-5l-10.9-26.9h5.5l7.9,20.8h0.1l8-20.8h5.4L419.4,57.8z"/>
		<path class="st5" d="M439.6,40.9v16.8h-5V18.5h22.9v4.8h-17.9v12.9h16.1v4.7H439.6z"/>
		<path class="st5" d="M472.7,58.6c-3.9,0-7.2-1.4-9.8-4.1c-2.6-2.7-3.8-6.1-3.8-10.2c0-4.1,1.2-7.5,3.7-10.2
			c2.5-2.7,5.7-4.1,9.5-4.1c4,0,7.2,1.3,9.5,3.9c2.4,2.6,3.5,6.2,3.5,10.8l-0.1,0.5h-21.1c0.1,2.6,0.9,4.8,2.6,6.4
			c1.7,1.6,3.7,2.4,6,2.4c3.2,0,5.7-1.6,7.6-4.8l4.5,2.2c-1.2,2.3-2.9,4-5,5.3C477.8,58,475.4,58.6,472.7,58.6z M464.7,41.1h15.4
			c-0.1-1.9-0.9-3.4-2.3-4.6s-3.2-1.8-5.5-1.8c-1.9,0-3.5,0.6-4.9,1.8C466,37.6,465.1,39.1,464.7,41.1z"/>
		<path class="st5" d="M510.9,50.3c0,2.3-1,4.3-3.1,5.9s-4.6,2.4-7.7,2.4c-2.7,0-5.1-0.7-7.1-2.1s-3.5-3.3-4.4-5.6l4.5-1.9
			c0.7,1.6,1.6,2.9,2.9,3.8c1.3,0.9,2.6,1.3,4.1,1.3c1.6,0,3-0.3,4-1c1.1-0.7,1.6-1.5,1.6-2.5c0-1.7-1.3-3-3.9-3.8l-4.6-1.2
			c-5.2-1.3-7.8-3.8-7.8-7.6c0-2.4,1-4.4,3-5.9s4.5-2.2,7.6-2.2c2.4,0,4.5,0.6,6.4,1.7c1.9,1.1,3.3,2.7,4,4.5l-4.5,1.9
			c-0.5-1.1-1.3-2-2.5-2.7c-1.2-0.6-2.4-1-3.9-1c-1.3,0-2.5,0.3-3.5,1c-1,0.7-1.6,1.5-1.6,2.4c0,1.5,1.4,2.6,4.3,3.3l4.1,1
			C508.2,43.6,510.9,46.3,510.9,50.3z"/>
		<path class="st5" d="M525.6,58.2c-2.2,0-4-0.7-5.5-2c-1.4-1.4-2.2-3.2-2.2-5.6v-15h-4.7v-4.6h4.7v-8.2h5v8.2h6.6v4.6H523v13.4
			c0,1.8,0.3,3,1,3.6c0.7,0.6,1.5,1,2.4,1c0.4,0,0.8,0,1.2-0.1c0.4-0.1,0.7-0.2,1.1-0.4l1.6,4.5C528.9,58,527.4,58.2,525.6,58.2z"/>
	</g>
	<g class="st4">
		<path class="st5" d="M227.9,96.4c0,3.4-1.3,6.2-3.8,8.3c-2.6,2.1-5.7,3.1-9.3,3.1c-3.3,0-6.1-1-8.6-2.9c-2.5-1.9-4.2-4.5-5.2-7.8
			l4.8-2c0.3,1.2,0.8,2.2,1.4,3.2c0.6,1,1.3,1.8,2.1,2.4c0.8,0.7,1.7,1.2,2.6,1.6c1,0.4,2,0.6,3,0.6c2.3,0,4.2-0.6,5.6-1.8
			c1.5-1.2,2.2-2.8,2.2-4.7c0-1.6-0.6-3.1-1.8-4.2c-1.1-1.1-3.3-2.2-6.4-3.3c-3.1-1.1-5.1-1.9-5.9-2.3c-4.2-2.1-6.2-5.2-6.2-9.4
			c0-2.9,1.2-5.4,3.5-7.4c2.3-2,5.2-3.1,8.6-3.1c3,0,5.6,0.8,7.8,2.3c2.2,1.5,3.7,3.4,4.4,5.6l-4.7,2c-0.4-1.5-1.3-2.7-2.6-3.6
			c-1.3-1-2.9-1.5-4.7-1.5c-2,0-3.6,0.5-5,1.6c-1.4,1-2,2.3-2,4c0,1.3,0.5,2.5,1.6,3.5c1.2,1,3.7,2.1,7.6,3.5c4,1.4,6.8,3,8.5,5
			C227,91.1,227.9,93.5,227.9,96.4z"/>
		<path class="st5" d="M245.1,107.8c-3.9,0-7.2-1.4-9.8-4.1c-2.6-2.7-3.8-6.1-3.8-10.2c0-4.1,1.2-7.5,3.7-10.2
			c2.5-2.7,5.7-4.1,9.5-4.1c4,0,7.2,1.3,9.5,3.9c2.4,2.6,3.5,6.2,3.5,10.8l-0.1,0.5h-21.1c0.1,2.6,0.9,4.8,2.6,6.4
			c1.7,1.6,3.7,2.4,6,2.4c3.2,0,5.7-1.6,7.6-4.8l4.5,2.2c-1.2,2.3-2.9,4-5,5.3C250.3,107.1,247.8,107.8,245.1,107.8z M237.1,90.2
			h15.4c-0.1-1.9-0.9-3.4-2.3-4.6c-1.4-1.2-3.2-1.8-5.5-1.8c-1.9,0-3.5,0.6-4.9,1.8S237.5,88.3,237.1,90.2z"/>
		<path class="st5" d="M272.9,79.2c3.7,0,6.7,1,8.8,3c2.2,2,3.2,4.7,3.2,8.2v16.6h-4.8v-3.7h-0.2c-2.1,3.1-4.9,4.6-8.3,4.6
			c-3,0-5.4-0.9-7.4-2.6c-2-1.8-3-3.9-3-6.6c0-2.8,1.1-5,3.2-6.6c2.1-1.6,4.9-2.5,8.4-2.5c3,0,5.5,0.5,7.4,1.6V90
			c0-1.8-0.7-3.2-2.1-4.5c-1.4-1.2-3-1.8-4.9-1.8c-2.8,0-5,1.2-6.7,3.6l-4.4-2.8C264.5,80.9,268.1,79.2,272.9,79.2z M266.4,98.7
			c0,1.3,0.6,2.4,1.7,3.3c1.1,0.9,2.4,1.3,3.9,1.3c2.1,0,4-0.8,5.7-2.4c1.7-1.6,2.5-3.4,2.5-5.5c-1.6-1.2-3.8-1.9-6.6-1.9
			c-2,0-3.8,0.5-5.1,1.5C267.1,96,266.4,97.2,266.4,98.7z"/>
		<path class="st5" d="M311,99.4c0,2.3-1,4.3-3.1,5.9c-2,1.6-4.6,2.4-7.7,2.4c-2.7,0-5.1-0.7-7.1-2.1s-3.5-3.3-4.4-5.6l4.5-1.9
			c0.7,1.6,1.6,2.9,2.9,3.8c1.3,0.9,2.6,1.3,4.1,1.3c1.6,0,3-0.3,4-1c1.1-0.7,1.6-1.5,1.6-2.5c0-1.7-1.3-3-3.9-3.8l-4.6-1.2
			c-5.2-1.3-7.8-3.8-7.8-7.6c0-2.4,1-4.4,3-5.9c2-1.5,4.5-2.2,7.6-2.2c2.4,0,4.5,0.6,6.4,1.7c1.9,1.1,3.3,2.7,4,4.5l-4.5,1.9
			c-0.5-1.1-1.3-2-2.5-2.7c-1.2-0.6-2.4-1-3.9-1c-1.3,0-2.5,0.3-3.5,1c-1,0.7-1.6,1.5-1.6,2.4c0,1.5,1.4,2.6,4.3,3.3l4.1,1
			C308.3,92.7,311,95.4,311,99.4z"/>
		<path class="st5" d="M314.1,93.5c0-4.1,1.3-7.5,3.9-10.3c2.6-2.7,5.9-4.1,9.9-4.1c4,0,7.3,1.4,9.9,4.1c2.6,2.7,3.9,6.1,3.9,10.3
			c0,4.2-1.3,7.6-3.9,10.2c-2.6,2.7-5.9,4.1-9.9,4.1c-4,0-7.3-1.4-9.9-4.1C315.4,101,314.1,97.6,314.1,93.5z M319.1,93.5
			c0,2.9,0.8,5.2,2.5,7c1.7,1.8,3.8,2.7,6.2,2.7s4.6-0.9,6.2-2.7c1.7-1.8,2.5-4.1,2.5-7c0-2.9-0.8-5.2-2.5-7
			c-1.7-1.8-3.8-2.7-6.2-2.7c-2.4,0-4.5,0.9-6.2,2.7C320,88.3,319.1,90.6,319.1,93.5z"/>
		<path class="st5" d="M345.8,80h4.8v3.7h0.2c0.8-1.3,1.9-2.4,3.5-3.3c1.6-0.9,3.2-1.3,5-1.3c3.3,0,5.8,0.9,7.6,2.8
			c1.8,1.9,2.7,4.6,2.7,8v16.9h-5V90.3c-0.1-4.4-2.3-6.6-6.6-6.6c-2,0-3.7,0.8-5,2.4c-1.4,1.6-2,3.6-2,5.8v14.9h-5V80z"/>
		<path class="st5" d="M410.6,102.1v4.8h-23.9v-5l9.7-9.8c3.3-3.3,5.5-5.8,6.7-7.5c1.2-1.7,1.9-3.4,1.9-5.2c0-1.6-0.6-3.1-1.9-4.2
			c-1.3-1.2-2.9-1.8-4.9-1.8c-1.7,0-3.2,0.5-4.4,1.5c-1.2,1-2,2.3-2.4,3.7l-4.6-1.9c0.7-2.3,2.1-4.2,4.2-5.8
			c2.1-1.6,4.5-2.4,7.3-2.4c3.4,0,6.2,1,8.5,3.1c2.3,2.1,3.4,4.6,3.4,7.7c0,3.6-2,7.5-6,11.7l-11,11H410.6z"/>
		<path class="st5" d="M415.4,88.1c0-5.7,1.4-10.4,4.2-14.1c2.8-3.7,6.4-5.5,10.9-5.5c4.4,0,8,1.9,10.9,5.6c2.8,3.7,4.2,8.4,4.2,14
			c0,5.6-1.4,10.3-4.2,14.1c-2.8,3.7-6.4,5.5-10.9,5.5c-4.4,0-8-1.8-10.9-5.5C416.8,98.5,415.4,93.8,415.4,88.1z M440.4,88.1
			c0-4.3-0.9-7.9-2.7-10.6c-1.8-2.8-4.2-4.2-7.2-4.2c-3,0-5.4,1.4-7.2,4.2c-1.8,2.8-2.7,6.3-2.7,10.6c0,4.3,0.9,7.9,2.7,10.7
			c1.8,2.7,4.2,4.1,7.2,4.1c3,0,5.4-1.4,7.2-4.2C439.5,96,440.4,92.4,440.4,88.1z"/>
		<path class="st5" d="M463.8,69.4v37.5h-5V75.6l-7.3,3.2l-1.9-4.3l11-5.2H463.8z"/>
		<path class="st5" d="M482.4,93.2c-3,0-5.7-1.2-8.2-3.6c-2.4-2.4-3.6-5.3-3.6-8.6c0-3.4,1.3-6.3,3.8-8.8c2.6-2.5,5.6-3.8,9-3.8
			c3.6,0,6.7,1.2,9.2,3.7c2.5,2.5,3.7,5.4,3.7,8.8c0,3-1.2,6.5-3.7,10.4l-10.9,16.3l-4.1-2.8l9.3-12.8l-0.1-0.1
			C485.7,92.8,484.2,93.2,482.4,93.2z M491.2,81c0-2.1-0.8-3.9-2.3-5.4c-1.5-1.5-3.3-2.2-5.5-2.2c-2.2,0-4,0.7-5.5,2.2
			c-1.5,1.5-2.2,3.3-2.2,5.4c0,2.1,0.7,3.9,2.2,5.4c1.6,1.5,3.4,2.2,5.5,2.2c2.1,0,3.9-0.7,5.5-2.2C490.5,85,491.2,83.2,491.2,81z"
			/>
	</g>
</g>
</svg>
