<?xml version="1.0" encoding="utf-8"?>
<!-- Generator: Adobe Illustrator 22.0.0, SVG Export Plug-In . SVG Version: 6.00 Build 0)  -->
<svg version="1.1" id="Layer_4" xmlns="http://www.w3.org/2000/svg" xmlns:xlink="http://www.w3.org/1999/xlink" x="0px" y="0px"
	 viewBox="0 0 134.1 32" style="enable-background:new 0 0 134.1 32;" xml:space="preserve">
<style type="text/css">
	.st0{enable-background:new    ;}
	.st1{fill:#673AB7;}
	.st2{fill:#FFFFFF;stroke:#673AB7;stroke-width:0.9932;stroke-miterlimit:10;}
</style>
<g>
	<g class="st0">
		<path class="st1" d="M65,11c0,1.3-0.4,2.3-1.1,3.1c-0.9,0.9-2,1.4-3.4,1.4c-1.3,0-2.5-0.5-3.4-1.4c-0.9-0.9-1.4-2.1-1.4-3.4
			c0-1.4,0.5-2.5,1.4-3.4c0.9-0.9,2.1-1.4,3.4-1.4c0.7,0,1.3,0.1,1.9,0.4c0.6,0.2,1.1,0.6,1.5,1L63,8.1c-0.3-0.3-0.6-0.6-1.1-0.8
			C61.5,7.1,61,7,60.5,7c-1,0-1.8,0.3-2.5,1c-0.7,0.7-1,1.6-1,2.6s0.3,1.9,1,2.6c0.7,0.7,1.5,1,2.5,1c0.9,0,1.7-0.3,2.3-0.8
			c0.6-0.5,1-1.2,1.1-2.1h-3.3v-1.1h4.5C65,10.6,65,10.8,65,11z"/>
		<path class="st1" d="M66.4,15.3V6.1h2.8c1.4,0,2.5,0.4,3.4,1.3c0.9,0.8,1.3,2,1.3,3.3c0,1.4-0.4,2.5-1.3,3.3
			c-0.9,0.8-2,1.3-3.4,1.3H66.4z M67.6,7.2v6.9h1.6c1.1,0,1.9-0.3,2.5-0.9c0.6-0.6,0.9-1.5,0.9-2.6c0-1.1-0.3-1.9-0.9-2.5
			c-0.6-0.6-1.5-0.9-2.5-0.9H67.6z"/>
		<path class="st1" d="M84.2,11c0,1.3-0.4,2.3-1.1,3.1c-0.9,0.9-2,1.4-3.4,1.4c-1.3,0-2.5-0.5-3.4-1.4c-0.9-0.9-1.4-2.1-1.4-3.4
			c0-1.4,0.5-2.5,1.4-3.4c0.9-0.9,2.1-1.4,3.4-1.4c0.7,0,1.3,0.1,1.9,0.4c0.6,0.2,1.1,0.6,1.5,1l-0.8,0.8c-0.3-0.3-0.6-0.6-1.1-0.8
			C80.6,7.1,80.1,7,79.6,7c-1,0-1.8,0.3-2.5,1c-0.7,0.7-1,1.6-1,2.6s0.3,1.9,1,2.6c0.7,0.7,1.5,1,2.5,1c0.9,0,1.7-0.3,2.3-0.8
			c0.6-0.5,1-1.2,1.1-2.1h-3.3v-1.1h4.5C84.1,10.6,84.2,10.8,84.2,11z"/>
		<path class="st1" d="M88.4,15.3V6.1h2.8c1.4,0,2.5,0.4,3.4,1.3s1.3,2,1.3,3.3c0,1.4-0.4,2.5-1.3,3.3s-2,1.3-3.4,1.3H88.4z
			 M89.6,7.2v6.9h1.6c1.1,0,1.9-0.3,2.5-0.9s0.9-1.5,0.9-2.6c0-1.1-0.3-1.9-0.9-2.5c-0.6-0.6-1.5-0.9-2.5-0.9H89.6z"/>
		<path class="st1" d="M99.7,15.5c-0.9,0-1.7-0.3-2.3-1s-0.9-1.4-0.9-2.4c0-1,0.3-1.8,0.9-2.4c0.6-0.6,1.3-1,2.2-1
			c0.9,0,1.7,0.3,2.2,0.9c0.6,0.6,0.8,1.4,0.8,2.5l0,0.1h-4.9c0,0.6,0.2,1.1,0.6,1.5c0.4,0.4,0.9,0.6,1.4,0.6c0.8,0,1.3-0.4,1.8-1.1
			l1.1,0.5c-0.3,0.5-0.7,0.9-1.2,1.2S100.4,15.5,99.7,15.5z M97.8,11.4h3.6c0-0.4-0.2-0.8-0.5-1.1s-0.8-0.4-1.3-0.4
			c-0.4,0-0.8,0.1-1.1,0.4C98.2,10.5,97.9,10.9,97.8,11.4z"/>
		<path class="st1" d="M106.7,15.3h-1.2L103,9h1.3l1.9,4.9h0L108,9h1.3L106.7,15.3z"/>
		<path class="st1" d="M111.4,11.3v3.9h-1.2V6.1h5.4v1.1h-4.2v3h3.8v1.1H111.4z"/>
		<path class="st1" d="M119.2,15.5c-0.9,0-1.7-0.3-2.3-1s-0.9-1.4-0.9-2.4c0-1,0.3-1.8,0.9-2.4c0.6-0.6,1.3-1,2.2-1
			c0.9,0,1.7,0.3,2.2,0.9c0.6,0.6,0.8,1.4,0.8,2.5l0,0.1h-4.9c0,0.6,0.2,1.1,0.6,1.5c0.4,0.4,0.9,0.6,1.4,0.6c0.8,0,1.3-0.4,1.8-1.1
			l1.1,0.5c-0.3,0.5-0.7,0.9-1.2,1.2S119.8,15.5,119.2,15.5z M117.3,11.4h3.6c0-0.4-0.2-0.8-0.5-1.1s-0.8-0.4-1.3-0.4
			c-0.4,0-0.8,0.1-1.1,0.4C117.6,10.5,117.4,10.9,117.3,11.4z"/>
		<path class="st1" d="M128.1,13.5c0,0.5-0.2,1-0.7,1.4c-0.5,0.4-1.1,0.6-1.8,0.6c-0.6,0-1.2-0.2-1.7-0.5c-0.5-0.3-0.8-0.8-1-1.3
			l1.1-0.5c0.2,0.4,0.4,0.7,0.7,0.9c0.3,0.2,0.6,0.3,1,0.3c0.4,0,0.7-0.1,0.9-0.2c0.3-0.2,0.4-0.4,0.4-0.6c0-0.4-0.3-0.7-0.9-0.9
			l-1.1-0.3c-1.2-0.3-1.8-0.9-1.8-1.8c0-0.6,0.2-1,0.7-1.4s1.1-0.5,1.8-0.5c0.6,0,1.1,0.1,1.5,0.4s0.8,0.6,0.9,1.1l-1.1,0.4
			c-0.1-0.3-0.3-0.5-0.6-0.6c-0.3-0.1-0.6-0.2-0.9-0.2c-0.3,0-0.6,0.1-0.8,0.2s-0.4,0.3-0.4,0.6c0,0.4,0.3,0.6,1,0.8l1,0.2
			C127.5,11.9,128.1,12.6,128.1,13.5z"/>
		<path class="st1" d="M131.6,15.4c-0.5,0-0.9-0.2-1.3-0.5c-0.3-0.3-0.5-0.8-0.5-1.3v-3.5h-1.1V9h1.1V7.1h1.2V9h1.5v1.1H131v3.1
			c0,0.4,0.1,0.7,0.2,0.9c0.2,0.1,0.3,0.2,0.6,0.2c0.1,0,0.2,0,0.3,0s0.2,0,0.3-0.1l0.4,1.1C132.4,15.3,132,15.4,131.6,15.4z"/>
	</g>
	<g class="st0">
		<path class="st1" d="M61.8,24.3c0,0.8-0.3,1.5-0.9,1.9c-0.6,0.5-1.3,0.7-2.2,0.7c-0.8,0-1.4-0.2-2-0.7c-0.6-0.4-1-1.1-1.2-1.8
			l1.1-0.5c0.1,0.3,0.2,0.5,0.3,0.7c0.1,0.2,0.3,0.4,0.5,0.6s0.4,0.3,0.6,0.4s0.5,0.1,0.7,0.1c0.5,0,1-0.1,1.3-0.4
			c0.3-0.3,0.5-0.6,0.5-1.1c0-0.4-0.1-0.7-0.4-1c-0.3-0.3-0.8-0.5-1.5-0.8c-0.7-0.3-1.2-0.4-1.4-0.5c-1-0.5-1.5-1.2-1.5-2.2
			c0-0.7,0.3-1.3,0.8-1.7c0.5-0.5,1.2-0.7,2-0.7c0.7,0,1.3,0.2,1.8,0.5c0.5,0.3,0.9,0.8,1,1.3l-1.1,0.5c-0.1-0.3-0.3-0.6-0.6-0.9
			c-0.3-0.2-0.7-0.3-1.1-0.3c-0.5,0-0.9,0.1-1.2,0.4c-0.3,0.2-0.5,0.5-0.5,0.9c0,0.3,0.1,0.6,0.4,0.8c0.3,0.2,0.9,0.5,1.8,0.8
			c0.9,0.3,1.6,0.7,2,1.2C61.6,23.1,61.8,23.6,61.8,24.3z"/>
		<path class="st1" d="M65.9,27c-0.9,0-1.7-0.3-2.3-0.9c-0.6-0.6-0.9-1.4-0.9-2.4c0-1,0.3-1.8,0.9-2.4s1.3-1,2.2-1
			c0.9,0,1.7,0.3,2.2,0.9c0.6,0.6,0.8,1.4,0.8,2.5l0,0.1h-4.9c0,0.6,0.2,1.1,0.6,1.5s0.9,0.6,1.4,0.6c0.8,0,1.3-0.4,1.8-1.1l1.1,0.5
			c-0.3,0.5-0.7,0.9-1.2,1.2C67.1,26.8,66.5,27,65.9,27z M64,22.9h3.6c0-0.4-0.2-0.8-0.5-1.1s-0.8-0.4-1.3-0.4
			c-0.4,0-0.8,0.1-1.1,0.4C64.3,22,64.1,22.4,64,22.9z"/>
		<path class="st1" d="M72.4,20.3c0.9,0,1.6,0.2,2.1,0.7c0.5,0.5,0.8,1.1,0.8,1.9v3.9h-1.1v-0.9H74c-0.5,0.7-1.1,1.1-2,1.1
			c-0.7,0-1.3-0.2-1.7-0.6c-0.5-0.4-0.7-0.9-0.7-1.5c0-0.7,0.2-1.2,0.7-1.6c0.5-0.4,1.1-0.6,2-0.6c0.7,0,1.3,0.1,1.7,0.4v-0.3
			c0-0.4-0.2-0.8-0.5-1c-0.3-0.3-0.7-0.4-1.1-0.4c-0.7,0-1.2,0.3-1.6,0.8l-1-0.7C70.4,20.7,71.3,20.3,72.4,20.3z M70.8,24.8
			c0,0.3,0.1,0.6,0.4,0.8c0.3,0.2,0.6,0.3,0.9,0.3c0.5,0,0.9-0.2,1.3-0.6c0.4-0.4,0.6-0.8,0.6-1.3c-0.4-0.3-0.9-0.4-1.5-0.4
			c-0.5,0-0.9,0.1-1.2,0.3C71,24.2,70.8,24.5,70.8,24.8z"/>
		<path class="st1" d="M81.3,25c0,0.5-0.2,1-0.7,1.4c-0.5,0.4-1.1,0.6-1.8,0.6c-0.6,0-1.2-0.2-1.7-0.5c-0.5-0.3-0.8-0.8-1-1.3
			l1.1-0.5c0.2,0.4,0.4,0.7,0.7,0.9s0.6,0.3,1,0.3c0.4,0,0.7-0.1,0.9-0.2c0.3-0.2,0.4-0.4,0.4-0.6c0-0.4-0.3-0.7-0.9-0.9l-1.1-0.3
			c-1.2-0.3-1.8-0.9-1.8-1.8c0-0.6,0.2-1,0.7-1.4c0.5-0.3,1.1-0.5,1.8-0.5c0.6,0,1.1,0.1,1.5,0.4s0.8,0.6,0.9,1.1l-1.1,0.4
			c-0.1-0.3-0.3-0.5-0.6-0.6c-0.3-0.1-0.6-0.2-0.9-0.2c-0.3,0-0.6,0.1-0.8,0.2s-0.4,0.3-0.4,0.6c0,0.4,0.3,0.6,1,0.8l1,0.2
			C80.7,23.4,81.3,24.1,81.3,25z"/>
		<path class="st1" d="M82,23.6c0-1,0.3-1.8,0.9-2.4c0.6-0.6,1.4-1,2.3-1s1.7,0.3,2.3,1c0.6,0.6,0.9,1.4,0.9,2.4
			c0,1-0.3,1.8-0.9,2.4C87,26.7,86.2,27,85.3,27s-1.7-0.3-2.3-0.9C82.3,25.4,82,24.6,82,23.6z M83.2,23.6c0,0.7,0.2,1.2,0.6,1.6
			s0.9,0.6,1.5,0.6c0.6,0,1.1-0.2,1.5-0.6c0.4-0.4,0.6-1,0.6-1.6c0-0.7-0.2-1.2-0.6-1.6c-0.4-0.4-0.9-0.6-1.5-0.6
			c-0.6,0-1.1,0.2-1.5,0.6C83.4,22.4,83.2,23,83.2,23.6z"/>
		<path class="st1" d="M89.4,20.5h1.1v0.9h0.1c0.2-0.3,0.5-0.6,0.8-0.8c0.4-0.2,0.8-0.3,1.2-0.3c0.8,0,1.4,0.2,1.8,0.7
			c0.4,0.4,0.6,1.1,0.6,1.9v4h-1.2v-3.9c0-1-0.5-1.5-1.6-1.5c-0.5,0-0.9,0.2-1.2,0.6c-0.3,0.4-0.5,0.8-0.5,1.4v3.5h-1.2V20.5z"/>
		<path class="st1" d="M104.6,25.6v1.1H99v-1.2l2.3-2.3c0.8-0.8,1.3-1.4,1.6-1.8c0.3-0.4,0.4-0.8,0.4-1.2c0-0.4-0.1-0.7-0.4-1
			s-0.7-0.4-1.2-0.4c-0.4,0-0.8,0.1-1,0.4s-0.5,0.5-0.6,0.9L99,19.7c0.2-0.5,0.5-1,1-1.4s1.1-0.6,1.7-0.6c0.8,0,1.5,0.2,2,0.7
			s0.8,1.1,0.8,1.8c0,0.8-0.5,1.8-1.4,2.7l-2.6,2.6H104.6z"/>
		<path class="st1" d="M105.8,22.4c0-1.3,0.3-2.4,1-3.3c0.7-0.9,1.5-1.3,2.5-1.3c1,0,1.9,0.4,2.5,1.3c0.7,0.9,1,2,1,3.3
			c0,1.3-0.3,2.4-1,3.3c-0.7,0.9-1.5,1.3-2.5,1.3c-1,0-1.9-0.4-2.5-1.3C106.1,24.8,105.8,23.7,105.8,22.4z M111.6,22.4
			c0-1-0.2-1.8-0.6-2.5c-0.4-0.7-1-1-1.7-1c-0.7,0-1.3,0.3-1.7,1c-0.4,0.7-0.6,1.5-0.6,2.5c0,1,0.2,1.8,0.6,2.5c0.4,0.6,1,1,1.7,1
			c0.7,0,1.3-0.3,1.7-1C111.4,24.2,111.6,23.4,111.6,22.4z"/>
		<path class="st1" d="M117.1,18v8.8h-1.2v-7.3l-1.7,0.7l-0.4-1l2.6-1.2H117.1z"/>
		<path class="st1" d="M121.5,23.6c-0.7,0-1.3-0.3-1.9-0.8c-0.6-0.6-0.8-1.2-0.8-2c0-0.8,0.3-1.5,0.9-2.1c0.6-0.6,1.3-0.9,2.1-0.9
			c0.8,0,1.6,0.3,2.1,0.9s0.9,1.3,0.9,2.1c0,0.7-0.3,1.5-0.9,2.4l-2.6,3.8l-1-0.7l2.2-3l0,0C122.2,23.5,121.9,23.6,121.5,23.6z
			 M123.5,20.7c0-0.5-0.2-0.9-0.5-1.3c-0.4-0.3-0.8-0.5-1.3-0.5s-0.9,0.2-1.3,0.5c-0.4,0.4-0.5,0.8-0.5,1.3c0,0.5,0.2,0.9,0.5,1.3
			c0.4,0.4,0.8,0.5,1.3,0.5s0.9-0.2,1.3-0.5C123.4,21.6,123.5,21.2,123.5,20.7z"/>
	</g>
	<g>
		<g>
			<path class="st2" d="M22,10.7L7.4,19.1c-2,1.1-4.5,0.5-5.7-1.5l0,0c-1.1-2-0.5-4.5,1.5-5.7l14.6-8.4c2-1.1,4.5-0.5,5.7,1.5l0,0
				C24.7,7,24,9.6,22,10.7z"/>
			<path class="st2" d="M17.9,27.5L3.3,19.1c-2-1.1-2.7-3.7-1.5-5.7l0,0c1.1-2,3.7-2.7,5.7-1.5L22,20.3c2,1.1,2.7,3.7,1.5,5.7l0,0
				C22.4,27.9,19.9,28.6,17.9,27.5z"/>
		</g>
		<g>
			<path class="st2" d="M32.4,20.3L47,11.9c2-1.1,4.5-0.5,5.7,1.5l0,0c1.1,2,0.5,4.5-1.5,5.7l-14.6,8.4c-2,1.1-4.5,0.5-5.7-1.5l0,0
				C29.7,24,30.4,21.4,32.4,20.3z"/>
			<path class="st2" d="M36.5,3.5l14.6,8.4c2,1.1,2.7,3.7,1.5,5.7l0,0c-1.1,2-3.7,2.7-5.7,1.5l-14.6-8.4c-2-1.1-2.7-3.7-1.5-5.7l0,0
				C32,3.1,34.5,2.4,36.5,3.5z"/>
		</g>
	</g>
</g>
</svg>
