<?xml version="1.0" encoding="UTF-8"?>
<!DOCTYPE svg PUBLIC "-//W3C//DTD SVG 1.1//EN" "http://www.w3.org/Graphics/SVG/1.1/DTD/svg11.dtd">
<!-- Creator: CorelDRAW X8 -->
<svg xmlns="http://www.w3.org/2000/svg" xml:space="preserve" width="210mm" height="297mm" version="1.1" style="shape-rendering:geometricPrecision; text-rendering:geometricPrecision; image-rendering:optimizeQuality; fill-rule:evenodd; clip-rule:evenodd"
viewBox="0 0 21000 29700"
 xmlns:xlink="http://www.w3.org/1999/xlink">
 <defs>
  <style type="text/css">
   <![CDATA[
    .fil3 {fill:#579956}
    .fil1 {fill:#5F75B3}
    .fil0 {fill:#C63A2A}
    .fil2 {fill:#E9B92B}
    .fil4 {fill:white}
   ]]>
  </style>
 </defs>
 <g id="Capa_x0020_1">
  <metadata id="CorelCorpID_0Corel-Layer"/>
  <g id="_2836832101584">
   <g>
    <g>
     <path class="fil0" d="M3317 14091l-2116 1224c-286,165 -657,67 -822,-219l0 0c-164,-285 -66,-657 219,-821l2116 -1224c286,-164 658,-67 822,219l0 0c168,285 66,657 -219,821z"/>
     <path class="fil1" d="M2722 16528l-2120 -1213c-285,-164 -387,-531 -223,-821l0 0c165,-285 532,-387 822,-223l2120 1213c285,164 387,532 223,821l0 0c-169,286 -536,387 -822,223z"/>
    </g>
    <g>
     <path class="fil2" d="M4823 15484l2116 -1221c285,-164 657,-66 821,219l0 0c164,286 67,657 -219,822l-2116 1224c-286,164 -657,66 -821,-219l0 0c-169,-290 -71,-657 219,-825z"/>
     <path class="fil3" d="M5417 13051l2120 1212c286,165 387,532 223,822l0 0c-164,285 -532,387 -821,223l-2120 -1213c-286,-164 -387,-532 -223,-821l0 0c164,-290 536,-387 821,-223z"/>
    </g>
   </g>
   <g>
    <path class="fil4" d="M9442 13900c0,215 -63,383 -192,512 -144,152 -332,227 -563,227 -223,0 -411,-78 -567,-231 -153,-153 -231,-344 -231,-571 0,-227 78,-415 231,-571 152,-153 344,-231 567,-231 114,0 219,20 321,59 102,39 184,98 246,168l-141 141c-47,-59 -109,-102 -183,-133 -75,-31 -157,-47 -243,-47 -168,0 -309,59 -426,172 -114,117 -172,262 -172,438 0,176 58,321 172,438 117,117 258,172 426,172 153,0 282,-43 383,-129 102,-86 161,-203 176,-352l-559 0 0 -184 743 0c8,47 12,86 12,122z"/>
    <path class="fil4" d="M9681 14608l0 -1538 469 0c235,0 422,71 563,212 141,140 215,328 215,555 0,231 -70,415 -215,555 -141,141 -332,212 -563,212l-469 0 0 4zm199 -1350l0 1158 274 0c180,0 321,-51 422,-153 102,-101 153,-242 153,-426 0,-180 -51,-321 -153,-426 -101,-102 -242,-153 -422,-153l-274 0z"/>
    <path class="fil4" d="M12641 13900c0,215 -62,383 -191,512 -145,152 -333,227 -563,227 -223,0 -411,-78 -568,-231 -152,-153 -230,-344 -230,-571 0,-227 78,-415 230,-571 153,-153 345,-231 568,-231 113,0 219,20 320,59 102,39 184,98 247,168l-141 141c-47,-59 -110,-102 -184,-133 -74,-31 -156,-47 -242,-47 -169,0 -309,59 -427,172 -113,117 -172,262 -172,438 0,176 59,321 172,438 118,117 258,172 427,172 152,0 281,-43 383,-129 102,-86 160,-203 176,-352l-559 0 0 -184 743 0c8,47 11,86 11,122z"/>
    <path class="fil4" d="M13353 14608l0 -1538 470 0c234,0 422,71 563,212 141,140 215,328 215,555 0,231 -70,415 -215,555 -141,141 -333,212 -563,212l-470 0 0 4zm196 -1350l0 1158 274 0c180,0 320,-51 422,-153 102,-101 153,-242 153,-426 0,-180 -51,-321 -153,-426 -102,-102 -242,-153 -422,-153l-274 0z"/>
    <path class="fil4" d="M15239 14639c-153,0 -282,-55 -384,-161 -101,-105 -148,-238 -148,-399 0,-160 47,-293 144,-398 98,-106 223,-161 372,-161 156,0 282,51 372,153 93,101 136,242 136,422l-3 20 -826 0c4,101 39,187 102,250 66,63 145,94 235,94 125,0 223,-63 297,-188l176 86c-47,90 -114,157 -196,207 -78,51 -172,75 -277,75zm-313 -685l602 0c-4,-74 -35,-133 -90,-180 -55,-47 -125,-70 -215,-70 -74,0 -137,23 -192,70 -54,43 -90,102 -105,180z"/>
    <polygon class="fil4" points="16404,14608 16209,14608 15782,13555 15997,13555 16306,14369 16310,14369 16623,13555 16834,13555 "/>
    <polygon class="fil4" points="17194,13946 17194,14604 16999,14604 16999,13070 17894,13070 17894,13258 17194,13258 17194,13763 17824,13763 17824,13946 "/>
    <path class="fil4" d="M18489 14639c-153,0 -282,-55 -383,-161 -102,-105 -149,-238 -149,-399 0,-160 47,-293 145,-398 97,-106 223,-161 371,-161 157,0 282,51 372,153 94,101 137,242 137,422l-4 20 -825 0c3,101 35,187 101,250 67,63 145,94 235,94 125,0 223,-63 297,-188l176 86c-47,90 -113,157 -195,207 -79,51 -172,75 -278,75zm-313 -685l602 0c-4,-74 -35,-133 -90,-180 -54,-47 -125,-70 -215,-70 -74,0 -137,23 -191,70 -55,43 -90,102 -106,180z"/>
    <path class="fil4" d="M19983 14314c0,90 -39,168 -121,231 -82,63 -180,94 -301,94 -106,0 -200,-28 -278,-82 -78,-55 -137,-129 -172,-219l176 -75c27,63 62,114 113,149 51,35 102,51 161,51 62,0 117,-12 156,-39 43,-28 63,-59 63,-98 0,-67 -51,-117 -153,-149l-180 -47c-203,-51 -305,-148 -305,-297 0,-94 39,-172 117,-231 79,-58 176,-86 298,-86 94,0 176,24 250,67 74,43 129,105 157,176l-177 74c-19,-43 -50,-78 -97,-106 -47,-23 -94,-39 -153,-39 -51,0 -98,12 -137,39 -39,28 -62,59 -62,94 0,59 54,102 168,129l160 39c211,63 317,169 317,325z"/>
    <path class="fil4" d="M20558 14623c-86,0 -156,-27 -215,-78 -55,-55 -86,-125 -86,-219l0 -587 -184 0 0 -180 184 0 0 -320 195 0 0 320 259 0 0 180 -255 0 0 524c0,71 12,118 39,141 28,24 59,39 94,39 16,0 32,0 47,-4 16,-4 28,-8 43,-15l63 176c-55,15 -114,23 -184,23z"/>
   </g>
   <g>
    <path class="fil4" d="M8914 16117c0,133 -51,243 -149,325 -101,82 -223,121 -363,121 -129,0 -239,-39 -337,-113 -98,-75 -164,-176 -203,-305l188 -79c11,47 31,86 54,126 24,39 51,70 82,93 32,28 67,47 102,63 39,16 78,24 117,24 90,0 165,-24 220,-71 58,-47 86,-109 86,-184 0,-62 -24,-121 -71,-164 -43,-43 -129,-86 -250,-129 -121,-43 -200,-74 -231,-90 -164,-82 -242,-203 -242,-368 0,-113 47,-211 136,-289 90,-78 204,-121 337,-121 117,0 219,31 305,90 86,58 145,133 172,219l-184 78c-15,-59 -51,-106 -101,-141 -51,-39 -114,-59 -184,-59 -79,0 -141,20 -196,63 -55,39 -78,90 -78,156 0,51 19,98 62,137 47,39 145,82 298,137 156,55 266,118 332,196 63,78 98,172 98,285z"/>
    <path class="fil4" d="M9587 16563c-153,0 -282,-55 -384,-160 -101,-106 -148,-239 -148,-399 0,-161 47,-294 144,-399 98,-106 223,-160 372,-160 157,0 282,50 372,152 94,102 137,243 137,422l-4 20 -826 0c4,102 36,188 102,250 67,63 145,94 235,94 125,0 223,-62 297,-187l176 86c-47,90 -113,156 -196,207 -74,47 -172,74 -277,74zm-313 -688l602 0c-4,-75 -35,-133 -90,-180 -55,-47 -125,-71 -215,-71 -74,0 -137,24 -192,71 -54,47 -90,105 -105,180z"/>
    <path class="fil4" d="M10674 15445c145,0 262,39 344,117 86,78 125,184 125,321l0 649 -187 0 0 -145 -8 0c-82,121 -192,180 -325,180 -117,0 -211,-35 -289,-102 -78,-70 -118,-152 -118,-258 0,-109 43,-195 126,-258 82,-62 191,-98 328,-98 117,0 215,20 290,63l0 -47c0,-70 -28,-125 -83,-176 -54,-47 -117,-70 -191,-70 -110,0 -196,46 -262,140l-172 -109c94,-141 234,-207 422,-207zm-254 762c0,51 23,94 66,129 43,36 94,51 153,51 82,0 156,-31 223,-94 66,-62 98,-133 98,-215 -63,-47 -149,-74 -259,-74 -78,0 -148,19 -199,59 -55,39 -82,86 -82,144z"/>
    <path class="fil4" d="M12164 16235c0,90 -39,168 -121,230 -78,63 -180,94 -301,94 -106,0 -200,-27 -278,-82 -78,-55 -137,-129 -172,-219l176 -74c27,62 63,113 113,148 51,36 102,51 161,51 62,0 117,-11 156,-39 43,-27 63,-59 63,-98 0,-66 -51,-117 -153,-148l-180 -47c-203,-51 -305,-149 -305,-297 0,-94 39,-173 118,-231 78,-59 176,-86 297,-86 94,0 176,23 250,66 75,43 129,106 157,176l-176 75c-20,-43 -51,-79 -98,-106 -47,-24 -94,-39 -153,-39 -50,0 -97,12 -136,39 -40,27 -63,59 -63,94 0,58 55,101 168,129l160 39c212,63 317,168 317,325z"/>
    <path class="fil4" d="M12286 16004c0,-161 50,-293 152,-403 102,-106 231,-160 387,-160 157,0 286,54 388,160 101,106 152,239 152,403 0,164 -51,297 -152,399 -102,105 -231,160 -388,160 -156,0 -285,-55 -387,-160 -102,-106 -152,-239 -152,-399zm195 0c0,113 31,203 98,274 66,70 149,105 242,105 94,0 180,-35 243,-105 66,-71 98,-161 98,-274 0,-114 -32,-204 -98,-274 -67,-70 -149,-106 -243,-106 -93,0 -176,36 -242,106 -63,70 -98,160 -98,274z"/>
    <path class="fil4" d="M13525 15476l188 0 0 145 8 0c31,-51 74,-94 137,-130 62,-35 125,-50 195,-50 130,0 227,35 298,109 70,74 105,180 105,313l0 661 -195 0 0 -645c-4,-172 -90,-258 -258,-258 -79,0 -145,31 -196,93 -55,63 -78,141 -78,227l0 583 -196 0 0 -1048 -8 0z"/>
    <path class="fil4" d="M16060 16340l0 188 -935 0 0 -196 380 -383c129,-129 215,-227 262,-293 47,-67 74,-133 74,-204 0,-62 -24,-121 -74,-164 -51,-47 -114,-70 -192,-70 -67,0 -125,19 -172,58 -47,39 -78,90 -94,145l-180 -74c27,-90 82,-165 164,-227 82,-63 176,-94 286,-94 133,0 242,39 332,121 90,82 133,180 133,301 0,141 -78,294 -234,458l-431 430 681 0 0 4z"/>
    <path class="fil4" d="M16248 15793c0,-223 54,-407 164,-552 110,-145 250,-215 426,-215 172,0 313,74 427,219 109,145 164,329 164,548 0,219 -55,403 -164,551 -110,145 -251,215 -427,215 -172,0 -313,-70 -426,-215 -110,-145 -164,-328 -164,-551zm978 0c0,-169 -36,-309 -106,-415 -70,-109 -164,-164 -282,-164 -117,0 -211,55 -281,164 -71,110 -106,246 -106,415 0,168 35,309 106,418 70,106 164,161 281,161 118,0 212,-55 282,-165 70,-105 106,-246 106,-414z"/>
    <polygon class="fil4" points="18141,15061 18141,16528 17945,16528 17945,15304 17660,15429 17585,15261 18016,15057 18141,15057 "/>
    <path class="fil4" d="M18868 15992c-117,0 -223,-47 -320,-141 -94,-94 -141,-207 -141,-336 0,-133 51,-246 148,-344 102,-98 219,-149 352,-149 141,0 262,47 360,145 98,98 145,211 145,344 0,117 -47,254 -145,407l-426 637 -160 -109 363 -501 -4 -4c-43,35 -101,51 -172,51zm345 -477c0,-82 -32,-153 -90,-211 -59,-59 -130,-86 -216,-86 -86,0 -156,27 -215,86 -58,58 -86,129 -86,211 0,82 28,152 86,211 63,59 133,86 215,86 83,0 153,-27 216,-86 62,-55 90,-125 90,-211z"/>
   </g>
  </g>
 </g>
</svg>
